<svg xmlns="http://www.w3.org/2000/svg" width="72" height="72" viewBox="0 0 72 72">
  <g id="Group_18129" data-name="Group 18129" transform="translate(-604 -170)">
    <circle id="Ellipse_148" data-name="Ellipse 148" cx="36" cy="36" r="36" transform="translate(604 170)" fill="#faeaea"/>
    <g id="_24x24-Alert" data-name="24x24-Alert" transform="translate(620 186)">
      <rect id="Frame24" width="40" height="40" fill="#c91d1d" opacity="0"/>
      <path id="alert" d="M22.9,3.991l14.745,28.9A3.493,3.493,0,0,1,38,34.355a3.251,3.251,0,0,1-3.237,3.292H5.094a4.174,4.174,0,0,1-1.439-.366A3.3,3.3,0,0,1,2.4,32.891Q16.725,5.129,17.321,3.991A2.9,2.9,0,0,1,19.988,2.35,3.238,3.238,0,0,1,22.9,3.991ZM20,32.714a2.378,2.378,0,1,0-2.34-2.378A2.359,2.359,0,0,0,20,32.714ZM18.4,14.051v9.877a1.62,1.62,0,1,0,3.24,0V14.234a1.626,1.626,0,0,0-1.62-1.646A1.6,1.6,0,0,0,18.4,14.051Z" transform="translate(0 -0.35)" fill="#c91d1d"/>
    </g>
  </g>
</svg>
