<svg width="23" height="23" viewBox="0 0 23 23" fill="none" xmlns="http://www.w3.org/2000/svg">
<path d="M10.5566 0C11.1721 0 11.783 0 12.3984 0C12.4254 0.0673828 12.4883 0.0404297 12.5332 0.0449219C12.8297 0.0853516 13.1262 0.121289 13.4182 0.161719C14.1145 0.260547 14.7793 0.476172 15.4486 0.67832C15.5025 0.723242 15.5654 0.745703 15.6328 0.754687C15.7811 0.813086 15.9338 0.875977 16.082 0.934375C16.118 0.970312 16.1629 0.992773 16.2168 0.992773C16.3336 1.07363 16.4684 1.12754 16.6031 1.17695C16.675 1.23535 16.7604 1.27578 16.8502 1.30273C16.9625 1.36563 17.0793 1.42852 17.1916 1.49141C17.2365 1.54082 17.2949 1.56777 17.3578 1.59023C17.4971 1.67559 17.6408 1.76543 17.7801 1.85078C17.834 1.90918 17.8969 1.94961 17.9732 1.98105C18.108 2.07539 18.2383 2.16973 18.373 2.26406C18.4045 2.29102 18.4359 2.31348 18.4674 2.34043C18.5842 2.43027 18.701 2.52461 18.8178 2.61445C18.8672 2.65488 18.9166 2.6998 18.9615 2.74023C19.0648 2.83008 19.1682 2.92441 19.2715 3.01426C19.3344 3.07266 19.3928 3.12656 19.4557 3.18496C19.55 3.2793 19.6398 3.36914 19.7342 3.46348C19.7926 3.52187 19.8465 3.58027 19.9049 3.63867C20.0082 3.75098 20.107 3.86328 20.2104 3.97109C20.2283 4.025 20.2598 4.06094 20.3092 4.08789C20.3945 4.1957 20.4844 4.29902 20.5697 4.40684C20.6012 4.47871 20.6461 4.5416 20.709 4.58652C20.7943 4.70781 20.8797 4.8291 20.9695 4.9459C20.9875 4.9998 21.0145 5.04473 21.0639 5.07617C21.1447 5.21094 21.2301 5.34121 21.3109 5.47598C21.3514 5.53887 21.3918 5.60176 21.4277 5.66016C21.5041 5.79492 21.5805 5.9252 21.6523 6.05996C21.6748 6.10937 21.7018 6.1543 21.7242 6.20371C21.7961 6.35195 21.8635 6.4957 21.9354 6.64395C21.9578 6.68887 21.9848 6.73379 22.0072 6.77871C22.0477 6.93594 22.115 7.08418 22.1914 7.22793C22.2049 7.30879 22.2318 7.38516 22.2812 7.45254C22.5508 8.25215 22.7754 9.06523 22.8922 9.90527C22.9236 10.1389 22.9057 10.377 23 10.5971C23 11.2125 23 11.8234 23 12.4389C22.9551 12.4523 22.9596 12.4928 22.9551 12.5287C22.8787 13.4047 22.6945 14.2627 22.4295 15.0982C22.3936 15.215 22.3576 15.3273 22.3217 15.4441C22.151 15.835 21.9758 16.2303 21.8051 16.6211C21.7242 16.7828 21.6434 16.9445 21.558 17.1062C21.4996 17.2006 21.4367 17.2949 21.3783 17.3893C20.7539 18.427 19.9857 19.3434 19.0783 20.1475C18.4719 20.682 17.8025 21.1268 17.1152 21.549C16.949 21.6344 16.7828 21.7197 16.6166 21.8006C16.2303 21.9713 15.8395 22.142 15.4531 22.3127C15.3363 22.3486 15.224 22.3846 15.1072 22.4205C15.0803 22.4295 15.0488 22.4385 15.0219 22.4475C13.216 23.0135 11.3787 23.1437 9.50996 22.8203C8.80469 22.708 8.13086 22.5014 7.45703 22.2812C7.38965 22.2318 7.31328 22.2049 7.23242 22.1914C7.08867 22.115 6.94043 22.0477 6.7832 22.0072C6.73828 21.9848 6.69336 21.9578 6.64844 21.9354C6.5002 21.8635 6.35195 21.7961 6.2082 21.7242C6.16328 21.7018 6.11387 21.6748 6.06895 21.6523C5.93418 21.576 5.80391 21.4996 5.66914 21.4277C5.60625 21.3873 5.54336 21.3469 5.48496 21.3109C5.3502 21.2301 5.21992 21.1447 5.08516 21.0639C5.05371 21.0145 5.00879 20.9875 4.95488 20.9695C4.83359 20.8842 4.7123 20.7988 4.59551 20.709C4.54609 20.6461 4.4832 20.6012 4.41582 20.5697C4.30801 20.4844 4.20469 20.3945 4.09687 20.3092C4.06992 20.2643 4.02949 20.2283 3.98008 20.2104C3.86777 20.107 3.75547 20.0082 3.64766 19.9049C3.58926 19.8465 3.53086 19.7926 3.46797 19.7342C3.37812 19.6398 3.28379 19.55 3.19395 19.4557C3.13555 19.3928 3.08164 19.3344 3.02324 19.2715C2.9334 19.1682 2.83906 19.0648 2.74922 18.957C2.70879 18.9076 2.66836 18.8582 2.62344 18.8133C2.53359 18.6965 2.43926 18.5797 2.34941 18.4629C2.32246 18.4314 2.3 18.4 2.27305 18.3686C2.17871 18.2338 2.08437 18.1035 1.99004 17.9688C1.95859 17.8969 1.92266 17.8295 1.85977 17.7801C1.77441 17.6408 1.68457 17.4971 1.59922 17.3578C1.58125 17.2949 1.5543 17.2365 1.50039 17.1916C1.4375 17.0793 1.37461 16.9625 1.31172 16.8502C1.29824 16.7828 1.2623 16.7244 1.21738 16.6705C1.15898 16.5133 1.0916 16.3605 1.00176 16.2168C1.00176 16.1629 0.979297 16.1225 0.943359 16.082C0.884961 15.9338 0.82207 15.7811 0.763672 15.6328C0.754687 15.5654 0.732227 15.5025 0.687305 15.4486C0.682813 15.4172 0.682813 15.3902 0.673828 15.3588C0.399805 14.6311 0.224609 13.8809 0.107813 13.1127C0.0763672 12.8881 0.0943359 12.6545 0 12.4434C0 11.8145 0 11.1855 0 10.5566C0.0314453 10.5477 0.0404297 10.5207 0.0449219 10.4893C0.125781 9.50996 0.345898 8.55762 0.664844 7.62773C0.709766 7.49746 0.75918 7.36719 0.804102 7.23242C1.00176 6.81465 1.19941 6.39238 1.39707 5.97461C1.50039 5.79492 1.60371 5.61523 1.70703 5.43555C2.11133 4.84258 2.5291 4.26309 3.01426 3.73301C3.72852 2.95137 4.55059 2.29551 5.43105 1.71152C5.61074 1.6082 5.79043 1.50488 5.97012 1.40156C6.38789 1.20391 6.81016 1.00625 7.22793 0.808594C7.3627 0.75918 7.50195 0.709766 7.63672 0.660352C8.37793 0.408789 9.13262 0.220117 9.90527 0.107813C10.1254 0.0763672 10.35 0.0943359 10.5566 0ZM13.517 12.7129C13.517 12.6365 13.517 12.5646 13.517 12.4883C13.5395 12.1244 13.5395 12.1244 13.9078 12.093C13.9168 12.093 13.9213 12.0885 13.9303 12.0885C13.9887 12.1109 14.0471 12.1109 14.1055 12.0885C14.1953 12.093 14.2852 12.102 14.3705 12.0975C14.8062 12.0615 15.0398 11.6752 14.8736 11.2619C14.8736 11.226 14.8691 11.1945 14.8332 11.1811C14.7254 10.9834 14.5592 10.8891 14.3346 10.907C14.2447 10.8846 14.1549 10.8801 14.065 10.9025C13.8539 10.8801 13.6473 10.8801 13.4361 10.9025C13.3463 10.8801 13.2564 10.8756 13.1666 10.9025C12.9555 10.8846 12.7488 10.8801 12.5377 10.9025C12.4479 10.8801 12.358 10.8756 12.2682 10.9025C12.057 10.8846 11.8504 10.8801 11.6393 10.9025C11.5494 10.8801 11.4596 10.8756 11.3697 10.9025C11.1586 10.8801 10.952 10.8801 10.7408 10.9025C10.651 10.8801 10.5611 10.8756 10.4713 10.9025C10.2602 10.8801 10.0535 10.8801 9.84238 10.9025C9.75254 10.8801 9.6627 10.8756 9.57285 10.9025C9.36172 10.8801 9.15508 10.8801 8.94395 10.9025C8.8541 10.8801 8.76426 10.8756 8.67441 10.9025C8.46328 10.8801 8.25664 10.8801 8.04551 10.9025C8.01406 10.8756 7.98262 10.8486 7.95117 10.8172C7.92871 10.651 7.85684 10.5072 7.76699 10.368C7.74004 10.2961 7.7041 10.2287 7.6457 10.1793C7.56934 10.0311 7.46152 9.91426 7.33125 9.81543C7.2998 9.75703 7.25039 9.7166 7.19199 9.68965C7.09316 9.58633 6.98086 9.51445 6.85059 9.46055C6.77871 9.40215 6.69785 9.36172 6.60352 9.34375C6.44629 9.26738 6.28457 9.21348 6.10938 9.20898C6.04648 9.2 5.98809 9.19102 5.9252 9.18203C5.66465 9.1416 5.41309 9.17305 5.16602 9.25391C4.38887 9.40215 3.63418 10.1568 3.50391 10.9115C3.41406 11.1451 3.40059 11.3832 3.41855 11.6303C3.40957 11.7066 3.41406 11.783 3.45449 11.8549C3.45449 12.048 3.52187 12.2232 3.59824 12.3939C3.61172 12.4479 3.6252 12.4973 3.67012 12.5332C3.73301 12.7174 3.84531 12.8701 3.98008 13.0049C4.00254 13.0543 4.03398 13.0902 4.0834 13.1172C4.19121 13.2564 4.32598 13.3643 4.4832 13.4406C4.49668 13.4766 4.52363 13.4811 4.55508 13.4855C4.70781 13.5979 4.87852 13.6787 5.06719 13.7102C5.13906 13.7326 5.21094 13.7506 5.28281 13.773C5.48047 13.809 5.67812 13.8494 5.88027 13.809C5.98359 13.7955 6.08691 13.7865 6.18574 13.773C6.92246 13.6248 7.48848 13.216 7.79395 12.5422C7.94668 12.2053 8.11289 12.0256 8.48125 12.084C8.57109 12.1064 8.66094 12.1064 8.75078 12.084C8.96191 12.102 9.16856 12.1064 9.37969 12.084C9.46953 12.1064 9.55937 12.1064 9.64922 12.084C9.86035 12.102 10.067 12.1064 10.2781 12.084C10.368 12.0975 10.4578 12.1109 10.5521 12.1199C10.5521 12.2861 10.5566 12.4523 10.5566 12.6186C10.5566 12.6949 10.5566 12.7668 10.5566 12.8432C10.5566 13.0678 10.5566 13.2924 10.5566 13.517C10.5566 13.5934 10.5566 13.6652 10.5566 13.7416C10.5387 13.9482 10.6061 14.1145 10.7768 14.2357C10.8217 14.2941 10.8756 14.3256 10.952 14.3301C11.235 14.4244 11.4775 14.3525 11.6393 14.1369C11.7695 13.9617 11.774 13.7641 11.7516 13.5619C11.7516 13.4855 11.7516 13.4092 11.7516 13.3373C11.7516 13.1127 11.7516 12.8881 11.7516 12.6635C11.7516 12.5871 11.7516 12.5107 11.7516 12.4389C11.774 12.1154 11.774 12.1154 12.075 12.084C12.1514 12.0975 12.2277 12.1064 12.3041 12.1199C12.3086 12.2996 12.3086 12.4838 12.3131 12.6635C12.3041 12.7398 12.2951 12.8207 12.349 12.8881C12.3805 13.0678 12.4838 13.1846 12.6545 13.252C12.7219 13.3059 12.8027 13.3238 12.8926 13.3193C13.2834 13.3148 13.5035 13.0947 13.517 12.7129ZM6.51367 15.7721C6.09141 15.808 5.82188 16.073 5.78594 16.4863C5.75 16.5627 5.77246 16.6391 5.79941 16.7109C5.81738 16.9041 5.91172 17.0479 6.06445 17.1602C6.10938 17.2051 6.1543 17.2455 6.19922 17.2904C6.28457 17.4027 6.39238 17.4881 6.50918 17.5645C6.5541 17.6318 6.6125 17.6768 6.68438 17.7082C6.7877 17.8115 6.90449 17.9059 7.03926 17.9732C7.09316 18.0361 7.15605 18.0766 7.22793 18.108C7.33574 18.2023 7.45254 18.2742 7.58281 18.3326C7.6502 18.3955 7.72656 18.4359 7.81191 18.4629C7.91973 18.5482 8.03652 18.6066 8.1668 18.6426C8.22969 18.701 8.30605 18.7279 8.38691 18.7504C8.53066 18.8312 8.67891 18.8896 8.83613 18.9346C8.88555 18.9525 8.93047 18.9705 8.97988 18.9885C9.15508 19.0514 9.32578 19.1232 9.50996 19.1457C9.58633 19.1682 9.6627 19.1906 9.73906 19.2131C9.91875 19.2535 10.0895 19.3164 10.2781 19.3119C10.332 19.3479 10.3949 19.3568 10.4578 19.3523C10.651 19.3883 10.8441 19.4197 11.0418 19.4062C11.1137 19.4377 11.19 19.4422 11.2664 19.4332C11.491 19.4512 11.7156 19.4557 11.9357 19.4332C12.0256 19.4467 12.1199 19.4422 12.2053 19.4107C12.4658 19.4107 12.7219 19.3883 12.9689 19.3164C13.0633 19.3209 13.1531 19.3164 13.2385 19.2715C13.5664 19.2266 13.8809 19.1412 14.1863 19.0109C14.3121 18.9975 14.4244 18.9391 14.5367 18.8941C15.0129 18.71 15.4711 18.4943 15.8889 18.1979C16.1539 18.0676 16.3785 17.8879 16.6031 17.7037C17.277 17.1557 17.8744 16.5312 18.3146 15.7721C18.6156 15.3543 18.8312 14.8961 19.0154 14.4199C19.0648 14.3076 19.1187 14.1953 19.1322 14.0695C19.2625 13.7641 19.3434 13.4496 19.3928 13.1217C19.4422 13.0363 19.4467 12.9465 19.4377 12.8521C19.5096 12.6006 19.5365 12.349 19.532 12.0885C19.568 11.9986 19.568 11.9088 19.5545 11.8189C19.577 11.5943 19.5725 11.3697 19.5545 11.1451C19.5635 11.0688 19.559 10.9924 19.5275 10.916C19.541 10.7184 19.5141 10.5252 19.4736 10.3365C19.4781 10.2736 19.4736 10.2107 19.4332 10.1568C19.4377 9.96816 19.3793 9.79746 19.3344 9.61777C19.3119 9.54141 19.2895 9.46504 19.267 9.38867C19.2355 9.19102 19.1727 9.00234 19.0918 8.81816C19.0783 8.78223 19.0648 8.74629 19.0559 8.71035C19.0064 8.53965 18.9436 8.37793 18.8492 8.2252C18.8402 8.15332 18.8088 8.09492 18.7639 8.04102C18.7234 7.91074 18.665 7.79395 18.5842 7.68613C18.5572 7.59629 18.5123 7.51992 18.4539 7.45254C18.382 7.3043 18.3012 7.16055 18.1889 7.03926C18.1754 6.98535 18.1439 6.94043 18.099 6.90898C18.0361 6.77422 17.9418 6.66191 17.834 6.55859C17.8025 6.48672 17.7531 6.42383 17.6857 6.37891C17.6094 6.26211 17.524 6.1543 17.4117 6.06895C17.3803 6.01055 17.3354 5.96562 17.2814 5.92969C17.1916 5.8084 17.0838 5.70508 16.958 5.61973C16.9311 5.5748 16.8951 5.53887 16.8412 5.5209C16.7334 5.39512 16.6076 5.29629 16.4684 5.21094C16.4189 5.15254 16.3605 5.10762 16.2887 5.07617C16.1674 4.96836 16.0371 4.87402 15.8844 4.80664C15.8529 4.76172 15.8035 4.73027 15.7496 4.72129C15.6238 4.62695 15.4936 4.54609 15.3453 4.49668C15.3229 4.45625 15.2824 4.45176 15.242 4.43828C15.0758 4.33496 14.9006 4.2541 14.7164 4.19121C14.676 4.16426 14.6355 4.13281 14.5816 4.1373C14.4244 4.05195 14.2627 3.99355 14.0875 3.95762C14.0381 3.9127 13.9752 3.90371 13.9123 3.90371C13.7416 3.82734 13.5619 3.78242 13.3732 3.75996C13.3193 3.72402 13.2564 3.72402 13.1936 3.72402C13.0049 3.65664 12.8072 3.63418 12.6096 3.62969C12.5377 3.58926 12.4568 3.59824 12.3805 3.60273C12.1738 3.5668 11.9627 3.54434 11.7516 3.5623C11.6752 3.5623 11.5988 3.5623 11.527 3.5623C11.2844 3.54434 11.0463 3.57578 10.8082 3.60723C10.7139 3.59824 10.624 3.60723 10.5387 3.64316C10.2646 3.65215 9.99512 3.71953 9.73008 3.79141C9.61328 3.82285 9.49648 3.8498 9.38418 3.88125C9.0248 3.98457 8.66992 4.09687 8.3375 4.27656C8.17578 4.32598 8.02754 4.39785 7.88828 4.49668C7.15605 4.85605 6.52266 5.3502 5.95664 5.92969C5.77695 6.11387 5.70957 6.35195 5.78145 6.6125C5.78145 6.69785 5.81289 6.77422 5.8668 6.83711C5.93867 6.99883 6.05547 7.10664 6.22168 7.16055C6.28906 7.20996 6.36543 7.23691 6.45078 7.23242C6.68887 7.26836 6.90449 7.20098 7.0707 7.03926C7.43457 6.68437 7.83437 6.37441 8.25215 6.08242C8.41387 5.99258 8.58008 5.89824 8.7418 5.8084C9.09668 5.65566 9.45156 5.50293 9.81992 5.38613C9.93672 5.35469 10.0535 5.32773 10.1703 5.29629C10.4264 5.25137 10.6824 5.20645 10.943 5.16152C11.0328 5.16602 11.1271 5.16152 11.2125 5.13008C11.4371 5.12559 11.6617 5.12559 11.8863 5.12109C11.9447 5.12559 12.0031 5.12559 12.066 5.13008C12.2771 5.15703 12.4883 5.18398 12.6949 5.21094C12.7713 5.22441 12.8432 5.24238 12.9195 5.25586C13.0813 5.29629 13.243 5.33672 13.4047 5.37715C13.4676 5.39512 13.5305 5.41309 13.5934 5.43555C13.7596 5.49395 13.9213 5.55684 14.0875 5.61523C14.1234 5.65117 14.1684 5.67363 14.2178 5.67363C14.366 5.75 14.5188 5.82188 14.667 5.89824C14.685 5.93867 14.7254 5.94316 14.7658 5.95664C14.9275 6.05996 15.0893 6.15879 15.251 6.26211C15.2734 6.28008 15.2959 6.29355 15.3184 6.31152C15.4486 6.41035 15.5744 6.51367 15.7047 6.6125C15.7496 6.67539 15.808 6.7248 15.8754 6.75625C15.9652 6.8416 16.0551 6.93145 16.1449 7.0168C16.2033 7.07969 16.2662 7.14258 16.3246 7.20098C16.4145 7.3043 16.5043 7.40762 16.5896 7.51094C16.6211 7.58281 16.666 7.6457 16.7289 7.69062C16.8143 7.81641 16.9041 7.94219 16.9895 8.06348C16.9939 8.09492 17.0029 8.12187 17.0344 8.13535C17.1152 8.28359 17.1961 8.43184 17.2814 8.58008C17.3084 8.625 17.3309 8.66992 17.3578 8.71484C17.4297 8.88105 17.5016 9.04727 17.5734 9.21348C17.5779 9.26289 17.5824 9.3123 17.6273 9.34375C17.6768 9.50996 17.7217 9.67168 17.7711 9.83789C17.7891 9.91426 17.8115 9.99062 17.8295 10.0715C17.8654 10.2512 17.9014 10.4264 17.9373 10.6061C17.9418 10.6824 17.9508 10.7543 17.9553 10.8307C17.9688 11.0418 17.9777 11.2484 17.9912 11.4596C17.9912 11.5359 17.9912 11.6078 17.9912 11.6842C17.9732 11.9223 17.9508 12.1648 17.9328 12.4029C17.8834 12.4883 17.8924 12.5781 17.8924 12.6725C17.807 12.9734 17.7262 13.2744 17.6408 13.5799C17.5914 13.7102 17.5465 13.8449 17.4971 13.9752C17.2051 14.6041 16.8457 15.1926 16.3965 15.7227C16.2078 15.9113 16.0146 16.1045 15.826 16.2932C15.2959 16.7424 14.7119 17.1018 14.0785 17.3938C13.9482 17.4432 13.8135 17.4881 13.6832 17.5375C13.3822 17.6229 13.0768 17.7037 12.7758 17.7891C12.6859 17.7891 12.5916 17.7846 12.5062 17.8295C12.2682 17.8475 12.0256 17.8699 11.7875 17.8879C11.7111 17.8879 11.6393 17.8879 11.5629 17.8879C11.3518 17.8744 11.1451 17.8609 10.934 17.852C10.8621 17.843 10.7857 17.8385 10.7139 17.8295C10.5342 17.7936 10.3545 17.7576 10.1793 17.7217C10.1029 17.7037 10.0266 17.6812 9.9457 17.6633C9.77949 17.6139 9.61777 17.5645 9.45156 17.5195C9.40215 17.4701 9.33477 17.4566 9.27187 17.4432C9.12363 17.3803 8.9709 17.3174 8.82266 17.2545C8.77773 17.2275 8.73281 17.2051 8.68789 17.1781C8.53965 17.0973 8.39141 17.0164 8.24316 16.9311C8.2207 16.9176 8.19375 16.8996 8.17129 16.8861C8.04551 16.8008 7.91973 16.7109 7.79844 16.6256C7.74902 16.5627 7.68613 16.5178 7.61875 16.4863C7.51543 16.3965 7.41211 16.3111 7.30879 16.2213C7.2459 16.1629 7.18301 16.1 7.12012 16.0416C7.0168 15.9068 6.88652 15.8305 6.72031 15.808C6.6709 15.7541 6.59004 15.7631 6.51367 15.7721Z" fill="#05966E"/>
<path d="M6.36987 10.5611C6.4103 10.5925 6.45073 10.624 6.49565 10.6554C6.58999 10.7857 6.68433 10.9205 6.78315 11.0507C6.78315 11.1001 6.79663 11.1451 6.83257 11.1855C6.86401 11.4101 6.87749 11.6392 6.81011 11.8593C6.67983 12.1962 6.44175 12.4253 6.11382 12.5646C5.88921 12.6185 5.6646 12.632 5.43999 12.5826C5.38159 12.5601 5.32319 12.5421 5.26479 12.5197C5.16147 12.4478 5.05815 12.3759 4.95034 12.3041C4.90991 12.2591 4.86948 12.2097 4.82905 12.1648C4.76167 12.0166 4.69878 11.8683 4.6314 11.7201C4.6269 11.6437 4.62241 11.5718 4.61792 11.4955C4.68979 10.8037 5.03569 10.4533 5.74995 10.3679C5.80835 10.3724 5.86675 10.3769 5.92964 10.3814C6.07339 10.4443 6.22163 10.5027 6.36987 10.5611Z" fill="#05966E"/>
</svg>
