<svg width="96" height="96" viewBox="0 0 96 96" fill="none" xmlns="http://www.w3.org/2000/svg">
<g clip-path="url(#clip0)">
<rect opacity="0.01" x="7.78369" y="10.3784" width="83.027" height="83.027" fill="#D8D8D8"/>
<ellipse cx="49.2973" cy="83.8918" rx="38.9189" ry="5.18919" fill="#F2F2F2"/>
<ellipse opacity="0.5" cx="83.027" cy="25.9459" rx="2.59459" ry="2.59459" fill="#D8D8D8"/>
<ellipse opacity="0.3" cx="77.8379" cy="19.8918" rx="1.72973" ry="1.72973" fill="#D8D8D8"/>
<path opacity="0.3" fill-rule="evenodd" clip-rule="evenodd" d="M87.3514 19.4595C87.3514 18.2654 86.3834 17.2974 85.1893 17.2974C83.9951 17.2974 83.0271 18.2654 83.0271 19.4595C83.0271 20.6537 83.9951 21.6217 85.1893 21.6217C86.3834 21.6217 87.3514 20.6537 87.3514 19.4595ZM83.892 19.4595C83.892 18.743 84.4728 18.1622 85.1893 18.1622C85.9057 18.1622 86.4866 18.743 86.4866 19.4595C86.4866 20.176 85.9057 20.7568 85.1893 20.7568C84.4728 20.7568 83.892 20.176 83.892 19.4595Z" fill="#D8D8D8"/>
<path fill-rule="evenodd" clip-rule="evenodd" d="M63.2402 61.4053L74.2167 72.3819C74.9096 73.0747 75.0605 74.0471 74.5539 74.5537C74.0473 75.0603 73.0749 74.9094 72.3821 74.2166L61.4055 63.24" fill="#FAFAFA"/>
<path d="M63.2402 61.4053L74.2167 72.3819C74.9096 73.0747 75.0605 74.0471 74.5539 74.5537C74.0473 75.0603 73.0749 74.9094 72.3821 74.2166L61.4055 63.24" stroke="#D8D8D8"/>
<circle cx="41.5855" cy="41.5854" r="28.9054" transform="rotate(-45 41.5855 41.5854)" fill="#FAFAFA" stroke="#D8D8D8"/>
<circle cx="41.8823" cy="41.8823" r="25.4459" transform="rotate(-45 41.8823 41.8823)" fill="white" stroke="#D8D8D8"/>
<mask id="path-10-outside-1" maskUnits="userSpaceOnUse" x="33.5945" y="28.4055" width="16" height="28" fill="black">
<rect fill="white" x="33.5945" y="28.4055" width="16" height="28"/>
<path fill-rule="evenodd" clip-rule="evenodd" d="M40.1296 46.1706C40.1296 46.9434 40.748 47.5677 41.5134 47.5677C42.2788 47.5677 42.8972 46.9434 42.8972 46.1706C42.8972 43.9221 43.9696 43.0315 45.3275 41.9051L45.3281 41.9046C46.7118 40.7564 48.4323 39.3288 48.4323 36.391C48.4323 32.5402 45.3275 29.4055 41.5134 29.4055C37.6993 29.4055 34.5945 32.5402 34.5945 36.391C34.5945 37.1637 35.2129 37.7881 35.9783 37.7881C36.7437 37.7881 37.3621 37.1637 37.3621 36.391C37.3621 34.077 39.2215 32.1997 41.5134 32.1997C43.8053 32.1997 45.6648 34.077 45.6648 36.391C45.6648 37.9365 44.9469 38.6045 43.5718 39.7483C42.0366 41.0188 40.1296 42.6036 40.1296 46.1706ZM41.9458 50.1623C40.7517 50.1623 39.7837 51.1303 39.7837 52.3244C39.7837 53.5186 40.7517 54.4866 41.9458 54.4866C43.14 54.4866 44.108 53.5186 44.108 52.3244C44.108 51.1303 43.14 50.1623 41.9458 50.1623Z"/>
</mask>
<path fill-rule="evenodd" clip-rule="evenodd" d="M40.1296 46.1706C40.1296 46.9434 40.748 47.5677 41.5134 47.5677C42.2788 47.5677 42.8972 46.9434 42.8972 46.1706C42.8972 43.9221 43.9696 43.0315 45.3275 41.9051L45.3281 41.9046C46.7118 40.7564 48.4323 39.3288 48.4323 36.391C48.4323 32.5402 45.3275 29.4055 41.5134 29.4055C37.6993 29.4055 34.5945 32.5402 34.5945 36.391C34.5945 37.1637 35.2129 37.7881 35.9783 37.7881C36.7437 37.7881 37.3621 37.1637 37.3621 36.391C37.3621 34.077 39.2215 32.1997 41.5134 32.1997C43.8053 32.1997 45.6648 34.077 45.6648 36.391C45.6648 37.9365 44.9469 38.6045 43.5718 39.7483C42.0366 41.0188 40.1296 42.6036 40.1296 46.1706ZM41.9458 50.1623C40.7517 50.1623 39.7837 51.1303 39.7837 52.3244C39.7837 53.5186 40.7517 54.4866 41.9458 54.4866C43.14 54.4866 44.108 53.5186 44.108 52.3244C44.108 51.1303 43.14 50.1623 41.9458 50.1623Z" fill="#FAFAFA"/>
<path d="M45.3275 41.9051L44.6906 41.1341L44.689 41.1355L45.3275 41.9051ZM45.3281 41.9046L45.965 42.6755L45.9667 42.6741L45.3281 41.9046ZM43.5718 39.7483L44.2094 40.5187L44.2113 40.5171L43.5718 39.7483ZM41.5134 46.5677C41.3093 46.5677 41.1296 46.4001 41.1296 46.1706H39.1296C39.1296 47.4866 40.1867 48.5677 41.5134 48.5677V46.5677ZM41.8972 46.1706C41.8972 46.4001 41.7175 46.5677 41.5134 46.5677V48.5677C42.8401 48.5677 43.8972 47.4866 43.8972 46.1706H41.8972ZM44.689 41.1355C44.0333 41.6794 43.3077 42.2724 42.7759 43.0552C42.2144 43.8817 41.8972 44.8666 41.8972 46.1706H43.8972C43.8972 45.2261 44.1162 44.6415 44.4303 44.179C44.7742 43.6727 45.2638 43.2572 45.9659 42.6748L44.689 41.1355ZM44.6912 41.1336L44.6906 41.1341L45.9643 42.6761L45.965 42.6755L44.6912 41.1336ZM47.4323 36.391C47.4323 38.8288 46.0683 39.9909 44.6895 41.135L45.9667 42.6741C47.3553 41.5219 49.4323 39.8287 49.4323 36.391H47.4323ZM41.5134 30.4055C44.7662 30.4055 47.4323 33.0835 47.4323 36.391H49.4323C49.4323 31.997 45.8887 28.4055 41.5134 28.4055V30.4055ZM35.5945 36.391C35.5945 33.0835 38.2606 30.4055 41.5134 30.4055V28.4055C37.1381 28.4055 33.5945 31.997 33.5945 36.391H35.5945ZM35.9783 36.7881C35.7741 36.7881 35.5945 36.6205 35.5945 36.391H33.5945C33.5945 37.707 34.6516 38.7881 35.9783 38.7881V36.7881ZM36.3621 36.391C36.3621 36.6205 36.1824 36.7881 35.9783 36.7881V38.7881C37.305 38.7881 38.3621 37.707 38.3621 36.391H36.3621ZM41.5134 31.1997C38.6602 31.1997 36.3621 33.5338 36.3621 36.391H38.3621C38.3621 34.6203 39.7828 33.1997 41.5134 33.1997V31.1997ZM46.6648 36.391C46.6648 33.5338 44.3666 31.1997 41.5134 31.1997V33.1997C43.244 33.1997 44.6648 34.6203 44.6648 36.391H46.6648ZM44.2113 40.5171C44.8797 39.9611 45.5124 39.425 45.9538 38.7928C46.4342 38.1049 46.6648 37.3469 46.6648 36.391H44.6648C44.6648 36.9805 44.5364 37.3294 44.314 37.6478C44.0528 38.0219 43.639 38.3917 42.9323 38.9796L44.2113 40.5171ZM41.1296 46.1706C41.1296 44.584 41.5482 43.4895 42.1065 42.6538C42.683 41.7909 43.4323 41.1619 44.2094 40.5187L42.9342 38.978C42.1762 39.6053 41.2044 40.4039 40.4435 41.5428C39.6645 42.7088 39.1296 44.1902 39.1296 46.1706H41.1296ZM40.7837 52.3244C40.7837 51.6826 41.304 51.1623 41.9458 51.1623V49.1623C40.1994 49.1623 38.7837 50.578 38.7837 52.3244H40.7837ZM41.9458 53.4866C41.304 53.4866 40.7837 52.9663 40.7837 52.3244H38.7837C38.7837 54.0709 40.1994 55.4866 41.9458 55.4866V53.4866ZM43.108 52.3244C43.108 52.9663 42.5877 53.4866 41.9458 53.4866V55.4866C43.6922 55.4866 45.108 54.0709 45.108 52.3244H43.108ZM41.9458 51.1623C42.5877 51.1623 43.108 51.6826 43.108 52.3244H45.108C45.108 50.578 43.6922 49.1623 41.9458 49.1623V51.1623Z" fill="#D8D8D8" mask="url(#path-10-outside-1)"/>
</g>
<defs>
<clipPath id="clip0">
<rect width="96" height="96" fill="white"/>
</clipPath>
</defs>
</svg>
